<?xml version="1.0" encoding="iso-8859-1"?>
<!-- Generator: Adobe Illustrator 19.0.0, SVG Export Plug-In . SVG Version: 6.00 Build 0)  -->
<svg version="1.1" id="Capa_1" xmlns="http://www.w3.org/2000/svg" xmlns:xlink="http://www.w3.org/1999/xlink" x="0px" y="0px"
	 viewBox="0 0 512 512" style="enable-background:new 0 0 512 512;" xml:space="preserve">
<g>
	<g>
		<path d="M118.4,472.5L26,380.099l-12.724,12.783c-17.701,17.401-17.701,45.901,0,63.602l42.299,42.299
			c16.769,17.344,46.298,17.899,63.6,0l13.925-13.984C128.001,481.199,122.901,476.999,118.4,472.5z"/>
	</g>
</g>
<g>
	<g>
		<g>
			<path d="M369.8,248.399L369.8,248.399C370.263,247.936,370.242,247.956,369.8,248.399z"/>
			<path d="M452,60V0h-30v60h-60v30h38.789l-94.695,94.695L263.599,142.2L150.022,255.776l106.183,106.183
				c2.827-2.827,106.892-106.86,113.595-113.56l-42.495-42.493L422,111.211V150h30V90h60V60H452z M263.65,269.561l-21.211-21.211
				l21.211-21.211l21.211,21.211L263.65,269.561z"/>
		</g>
	</g>
</g>
<g>
	<g>
		<path d="M266.752,387.724l-42.422,42.422c-12.158,12.147-30.696,15.234-46.533,10.018l57.169-57.021L128.812,276.987L47,358.799
			l7.683,7.659l-0.055,0.055l84.844,84.858c5.532,5.526,9.966,8.159,15.229,11.829l0.271-0.269
			c31.328,18.168,67.701,11.294,90.569-11.574l42.422-42.422L266.752,387.724z"/>
	</g>
</g>
<g>
</g>
<g>
</g>
<g>
</g>
<g>
</g>
<g>
</g>
<g>
</g>
<g>
</g>
<g>
</g>
<g>
</g>
<g>
</g>
<g>
</g>
<g>
</g>
<g>
</g>
<g>
</g>
<g>
</g>
</svg>
