<svg width="30" height="30" viewBox="0 0 30 30" fill="none" xmlns="http://www.w3.org/2000/svg">
    <path d="M13.1145 4.19995C12.1695 4.19995 11.4 4.9694 11.4 5.9144V7.79995H6.3C6.1344 7.79995 6 7.93435 6 8.09995C6 8.26555 6.1344 8.39995 6.3 8.39995H7.75547L8.57578 23.1644C8.63998 24.3056 9.58494 25.2 10.7273 25.2H19.2727C20.4151 25.2 21.3606 24.3062 21.4242 23.1656L22.2445 8.39995H23.7C23.8656 8.39995 24 8.26555 24 8.09995C24 7.93435 23.8656 7.79995 23.7 7.79995H18.6V5.9144C18.6 4.9694 17.8305 4.19995 16.8855 4.19995H13.1145ZM13.1145 4.79995H16.8855C17.4999 4.79995 18 5.3 18 5.9144V7.79995H12V5.9144C12 5.3 12.4995 4.79995 13.1145 4.79995ZM8.35664 8.39995H21.6434L20.8254 23.1316C20.7792 23.9548 20.0971 24.6 19.2727 24.6H10.7273C9.90294 24.6 9.22081 23.9554 9.17461 23.1316L8.35664 8.39995ZM11.502 11.4C11.337 11.4054 11.2065 11.5449 11.2125 11.7105L11.5453 21.3105C11.5513 21.4725 11.6839 21.5988 11.8453 21.5988H11.857C12.022 21.5934 12.1513 21.455 12.1453 21.2894L11.8125 11.6894C11.8071 11.5238 11.6622 11.3772 11.502 11.4ZM15 11.4C14.8344 11.4 14.7 11.5344 14.7 11.7V21.2589C14.7 21.4245 14.8344 21.5589 15 21.5589C15.1656 21.5589 15.3 21.4245 15.3 21.2589V11.7C15.3 11.5344 15.1656 11.4 15 11.4ZM18.498 11.4C18.327 11.388 18.1935 11.5244 18.1875 11.6894L17.8535 21.2894C17.8475 21.455 17.978 21.5934 18.143 21.5988H18.1535C18.3149 21.5988 18.4475 21.4725 18.4535 21.3105L18.7875 11.7105C18.7935 11.5449 18.663 11.4054 18.498 11.4Z" fill="#FF4031"/>
</svg>
